<?xml version="1.0" encoding="utf-8"?>
<svg width="24" height="24" viewBox="0 0 24 24" fill="none" xmlns="http://www.w3.org/2000/svg">
  <g>
    <path d="M9.97972 1.72002C10.2725 1.42757 10.7469 1.42757 11.0397 1.72002C11.0397 1.72002 19.7297 10.41 19.7297 10.41C19.9181 10.6049 20.197 10.683 20.4592 10.6142C20.7214 10.5454 20.9261 10.3406 20.9946 10.0783C21.0631 9.81605 20.9848 9.53723 20.7897 9.34902C20.7897 9.34902 12.1007 0.65902 12.1007 0.65902C11.222 -0.219673 9.7974 -0.219673 8.91872 0.65902C8.91872 0.65902 0.228723 9.34902 0.228723 9.34902C0.0338486 9.53742 -0.0442084 9.8163 0.0245523 10.0785C0.0933132 10.3407 0.298191 10.5454 0.560443 10.6139C0.822695 10.6824 1.10151 10.6041 1.28972 10.409C1.28972 10.409 9.97972 1.72002 9.97972 1.72002C9.97972 1.72002 9.97972 1.72002 9.97972 1.72002Z" fill="#000000" transform="translate(1.49 2.121)" />
    <path d="M8.25 0C8.25 0 16.409 8.159 16.409 8.159C16.439 8.189 16.469 8.217 16.5 8.245C16.5 8.245 16.5 14.443 16.5 14.443C16.5 15.478 15.66 16.318 14.625 16.318C14.625 16.318 11.25 16.318 11.25 16.318C10.8358 16.318 10.5 15.9822 10.5 15.568C10.5 15.568 10.5 11.068 10.5 11.068C10.5 10.6538 10.1642 10.318 9.75 10.318C9.75 10.318 6.75 10.318 6.75 10.318C6.33579 10.318 6 10.6538 6 11.068C6 11.068 6 15.568 6 15.568C6 15.9822 5.66421 16.318 5.25 16.318C5.25 16.318 1.875 16.318 1.875 16.318C0.839466 16.318 0 15.4785 0 14.443C0 14.443 0 8.245 0 8.245C0.0311131 8.21717 0.0614591 8.18849 0.0910044 8.15899C0.0910044 8.15899 8.25 0 8.25 0L8.25 0Z" fill="#000000" transform="translate(3.75 5.432)" />
  </g>
</svg>